<svg xmlns="http://www.w3.org/2000/svg" viewBox="0 0 483 486.82"><path d="M474,0H10A8,8,0,0,0,2,8V328a8,8,0,0,0,8,8H154.8L88.4,402.3a8,8,0,0,0,0,11.3,7.93,7.93,0,0,0,5.7,2.3H154v59.9a8.06,8.06,0,0,0,13.7,5.7l73.6-73.6h1.5l73.6,73.6a8,8,0,0,0,11.3,0,7.93,7.93,0,0,0,2.3-5.7V416h59.9a8.06,8.06,0,0,0,5.7-13.7L329.2,336H474a8,8,0,0,0,8-8V8A8,8,0,0,0,474,0ZM170,456.6V408a8,8,0,0,0-8-8H113.4l51.3-51.3.3.9a6.37,6.37,0,0,0,.2.7,10.26,10.26,0,0,1,.4,1.4,65.85,65.85,0,0,0,2.9,7.8c.4,1,.8,2,1.2,2.8a40.78,40.78,0,0,0,3.2,5.8,45.85,45.85,0,0,0,3.3,5.2,50.35,50.35,0,0,0,3.9,5.2l.8,1c1.4,1.7,2.9,3.3,4.5,4.9s3.2,3.1,4.4,4.1a15.76,15.76,0,0,0,1.5,1.2,42.91,42.91,0,0,0,4.8,3.6,64.89,64.89,0,0,0,5.5,3.6c2,1.2,4,2.2,5.9,3.1.9.4,1.7.8,2.6,1.1a52,52,0,0,0,7.8,2.9c1.1.4,2.3.7,3.4,1Zm88.4-66.8-1.1.3c-1.8.4-3.7.8-5.5,1.1-2,.3-4.2.5-6.3.7-1.1.1-2.3.1-3.5.1s-2.4,0-3.5-.1c-2.2-.2-4.3-.4-6.3-.7s-3.7-.7-5.3-1.1l-1.3-.3c-.8-.2-1.6-.4-2.8-.8a38.09,38.09,0,0,1-6.4-2.4,13.17,13.17,0,0,1-1.9-.8c-1.6-.8-3.3-1.6-4.8-2.5s-2.9-1.8-4.3-2.8a40.1,40.1,0,0,1-4.1-3.1c-.2-.2-.5-.4-.7-.6q-1.95-1.65-3.9-3.6t-3.6-3.9a4.35,4.35,0,0,0-.6-.7,49.55,49.55,0,0,1-3.4-4.6,33.36,33.36,0,0,1-2.5-4c-.9-1.5-1.8-3.1-2.6-4.7a19,19,0,0,1-.9-2.2,47.49,47.49,0,0,1-2.3-6.3,21.72,21.72,0,0,1-.7-2.4l-.3-1.1c-.4-1.8-.8-3.7-1.1-5.5-.3-2-.5-4.2-.7-6.3-.1-1.2-.1-2.4-.1-3.6a64,64,0,1,1,128,0c0,1.2,0,2.4-.1,3.5-.2,2.2-.4,4.3-.7,6.3s-.7,3.7-1.1,5.3l-.3,1.3c-.2.8-.4,1.6-.8,2.8a49.34,49.34,0,0,1-2.4,6.4,13.17,13.17,0,0,1-.8,1.9c-.8,1.6-1.6,3.3-2.5,4.8a39.55,39.55,0,0,1-2.8,4.3,40.1,40.1,0,0,1-3.1,4.1c-.2.2-.4.5-.6.7q-1.65,1.95-3.6,3.9t-3.9,3.6c-.3.2-.5.4-.8.6-1.5,1.2-3,2.3-4.5,3.4-1.2.9-2.5,1.7-3.8,2.5-1.6.9-3.2,1.8-5,2.6a19,19,0,0,1-2.2.9,47.49,47.49,0,0,1-6.3,2.3A11.39,11.39,0,0,1,258.4,389.8ZM370.6,400H322a8,8,0,0,0-8,8v48.6l-51.3-51.3.9-.3c.2-.1.5-.1.7-.2a10.26,10.26,0,0,1,1.4-.4,65.85,65.85,0,0,0,7.8-2.9c1-.4,2-.8,2.8-1.2,2-1,4.1-2,6.1-3.2,1.7-1,3.4-2.1,5-3.2a50.35,50.35,0,0,0,5.2-3.9,7,7,0,0,0,1-.8c1.7-1.4,3.3-2.9,4.9-4.5s3.1-3.2,4.1-4.4a15.76,15.76,0,0,0,1.2-1.5,42.91,42.91,0,0,0,3.6-4.8,64.89,64.89,0,0,0,3.6-5.5c1.2-2,2.2-4,3.1-5.9.5-1,.9-2,1.2-2.6a52,52,0,0,0,2.9-7.8c.4-1.1.7-2.3,1-3.4ZM466,320H321.6v-.1c-.1-.7-.2-1.3-.3-1.9a58.14,58.14,0,0,0-.9-5.8c-.2-1-.5-2-.7-2.9-.4-1.5-.7-3-1.2-4.5a28.27,28.27,0,0,0-1.1-3.1c-.5-1.4-.9-2.7-1.5-4a29.17,29.17,0,0,0-1.4-3.1c-.6-1.2-1.2-2.5-1.8-3.7-.5-1-1.1-2-1.7-3-.7-1.2-1.4-2.3-2.1-3.4s-1.3-1.9-2-2.9-1.6-2.1-2.4-3.2a32.32,32.32,0,0,0-2.3-2.7,37.06,37.06,0,0,0-2.7-2.9,29.46,29.46,0,0,0-2.5-2.5c-.9-.8-1.9-1.8-2.9-2.7s-1.8-1.5-2.7-2.2-2.1-1.6-3.2-2.4c-.9-.7-1.9-1.3-2.9-2s-2.3-1.4-3.5-2.1c-1-.6-2-1.2-3-1.7-1.2-.6-2.5-1.2-3.7-1.8A29.17,29.17,0,0,0,272,254c-1.3-.5-2.7-1-4-1.5-1-.4-2.1-.8-3.1-1.1-1.4-.4-2.9-.8-4.4-1.1-1-.2-2-.5-3-.7-1.7-.3-3.4-.6-5.1-.8-.9-.1-1.7-.3-2.6-.4a78.21,78.21,0,0,0-15.8,0c-.9.1-1.8.3-2.6.4a45,45,0,0,0-5.1.8c-1,.2-2,.5-3,.7-1.5.4-3,.7-4.4,1.1a28.27,28.27,0,0,0-3.1,1.1c-1.4.5-2.7.9-4,1.5-1,.4-2.1.9-3.1,1.4-1.3.6-2.5,1.2-3.7,1.8-1,.5-2,1.1-3,1.7-1.2.7-2.3,1.4-3.5,2.1-1,.6-1.9,1.3-2.9,2s-2.2,1.6-3.2,2.4-1.8,1.5-2.7,2.2c-1,.9-2,1.8-2.9,2.7s-1.7,1.6-2.5,2.5-1.8,1.9-2.7,2.9-1.5,1.8-2.3,2.7-1.6,2.1-2.4,3.2-1.4,1.9-2,2.9-1.4,2.3-2.1,3.4-1.2,2-1.7,3c-.6,1.2-1.2,2.5-1.8,3.7-.5,1-1,2.1-1.4,3.1-.5,1.3-1,2.7-1.5,4-.4,1-.8,2.1-1.1,3.1l-1.2,4.5c-.2,1-.5,1.9-.7,2.9-.4,1.9-.6,3.8-.9,5.8-.1.6-.2,1.3-.3,1.9v.1H18V16H466Z" transform="translate(-0.5 1.5)" fill="#fff" stroke="#fff" stroke-miterlimit="10" stroke-width="3"/><path d="M241.9,280Z" transform="translate(-0.5 1.5)" fill="#fff" stroke="#fff" stroke-miterlimit="10" stroke-width="3"/><path d="M242,280a48.23,48.23,0,0,0-48,48.4v2c.1,1.8.3,3.5.5,5a8.06,8.06,0,0,0,7.9,6.9,3.75,3.75,0,0,0,1.1-.1,8,8,0,0,0,6.8-9c-.2-1.1-.3-2.5-.4-3.7V328a32,32,0,0,1,32-32,8,8,0,0,0,8-8A7.94,7.94,0,0,0,242,280Z" transform="translate(-0.5 1.5)" fill="#fff" stroke="#fff" stroke-miterlimit="10" stroke-width="3"/><path d="M386,80H98a8,8,0,0,0,0,16H386a8,8,0,0,0,0-16Z" transform="translate(-0.5 1.5)" fill="#fff" stroke="#fff" stroke-miterlimit="10" stroke-width="3"/><path d="M386,128H98a8,8,0,0,0,0,16H386a8,8,0,0,0,0-16Z" transform="translate(-0.5 1.5)" fill="#fff" stroke="#fff" stroke-miterlimit="10" stroke-width="3"/><path d="M386,176H98a8,8,0,0,0,0,16H386a8,8,0,0,0,0-16Z" transform="translate(-0.5 1.5)" fill="#fff" stroke="#fff" stroke-miterlimit="10" stroke-width="3"/></svg>