<svg xmlns="http://www.w3.org/2000/svg" viewBox="0 0 488.45 488.57"><path d="M313.3,498.2a74.38,74.38,0,0,1-31.1-10.3,67.83,67.83,0,0,0-26.1-9.1A66.38,66.38,0,0,0,230,488c-12.6,6.3-25.7,12.8-38.5,9.4-13.4-3.6-21.6-16-29.5-28.1a65.64,65.64,0,0,0-17.2-20.2,65.55,65.55,0,0,0-26.6-5c-14.3-.9-29-1.8-38.6-11.4S69,408.2,68.1,393.9a65.87,65.87,0,0,0-5-26.6,65.44,65.44,0,0,0-20.2-17.2c-12-7.9-24.5-16.2-28.1-29.5-3.5-12.8,3.1-25.9,9.4-38.5a67.87,67.87,0,0,0,9.2-26.2,66.38,66.38,0,0,0-9.2-26.1c-6.3-12.6-12.8-25.7-9.4-38.5,3.6-13.4,16-21.6,28.1-29.5a65.64,65.64,0,0,0,20.2-17.2,65.55,65.55,0,0,0,5-26.6c.9-14.3,1.8-29,11.4-38.6S103.8,68.9,118.1,68a65.87,65.87,0,0,0,26.6-5,65.44,65.44,0,0,0,17.2-20.2c7.9-12,16.2-24.5,29.5-28.1,12.8-3.4,25.9,3.1,38.5,9.4a67.87,67.87,0,0,0,26.2,9.2,66.38,66.38,0,0,0,26.1-9.2c12.6-6.3,25.7-12.8,38.5-9.4,13.4,3.6,21.6,16,29.5,28.1A65.64,65.64,0,0,0,367.4,63,65.55,65.55,0,0,0,394,68c14.3.9,29,1.8,38.6,11.4S443.1,103.7,444,118a65.87,65.87,0,0,0,5,26.6,65.44,65.44,0,0,0,20.2,17.2c12,7.9,24.5,16.2,28.1,29.5,3.5,12.8-3.1,25.9-9.4,38.5a67.87,67.87,0,0,0-9.2,26.2,66.38,66.38,0,0,0,9.2,26.1c6.3,12.6,12.8,25.7,9.4,38.5-3.6,13.4-16,21.6-28.1,29.5A65.64,65.64,0,0,0,449,367.3a65.55,65.55,0,0,0-5,26.6c-.9,14.3-1.8,29-11.4,38.6S408.3,443,394,443.9a65.55,65.55,0,0,0-26.6,5,65.44,65.44,0,0,0-17.2,20.2c-7.9,12-16.2,24.5-29.5,28.1A27.44,27.44,0,0,1,313.3,498.2ZM198.8,27.7a15.83,15.83,0,0,0-3.8.5c-8.3,2.2-15,12.5-21.5,22.3a74.54,74.54,0,0,1-21.8,24.6A75,75,0,0,1,119,81.9c-12.2.8-23.8,1.5-29.7,7.4s-6.6,17.4-7.4,29.7a75.29,75.29,0,0,1-6.8,32.7,74.54,74.54,0,0,1-24.6,21.8C40.6,180,30.4,186.8,28.2,195c-2.1,7.8,3,18,8.4,28.8a77.08,77.08,0,0,1,10.6,32.3,77.08,77.08,0,0,1-10.6,32.3c-5.4,10.8-10.5,21-8.4,28.8,2.2,8.3,12.5,15,22.3,21.5a74.54,74.54,0,0,1,24.6,21.8,75,75,0,0,1,6.8,32.7c.8,12.2,1.5,23.8,7.4,29.7s17.4,6.6,29.7,7.4a75.29,75.29,0,0,1,32.7,6.8,72.62,72.62,0,0,1,21.8,24.6c6.5,9.9,13.3,20.1,21.5,22.3,7.8,2.1,18-3,28.8-8.4A77.08,77.08,0,0,1,256.1,465a77.08,77.08,0,0,1,32.3,10.6c10.8,5.4,21,10.5,28.8,8.4,8.3-2.2,15-12.5,21.5-22.3a74.54,74.54,0,0,1,21.8-24.6,75,75,0,0,1,32.7-6.8c12.2-.8,23.8-1.5,29.7-7.4s6.6-17.4,7.4-29.7a75.29,75.29,0,0,1,6.8-32.7,72.62,72.62,0,0,1,24.6-21.8c9.9-6.5,20.1-13.3,22.3-21.5,2.1-7.8-3-18-8.4-28.8A77.08,77.08,0,0,1,465,256.1a77.08,77.08,0,0,1,10.6-32.3c5.4-10.8,10.5-21,8.4-28.8-2.2-8.3-12.5-15-22.3-21.5a74.54,74.54,0,0,1-24.6-21.8,75,75,0,0,1-6.8-32.7c-.8-12.2-1.5-23.8-7.4-29.7s-17.4-6.6-29.7-7.4a75.29,75.29,0,0,1-32.7-6.8,72.62,72.62,0,0,1-21.8-24.6c-6.5-9.9-13.3-20.1-21.5-22.3-7.8-2.1-18,3-28.8,8.4a77.08,77.08,0,0,1-32.3,10.6,77.08,77.08,0,0,1-32.3-10.6A64.71,64.71,0,0,0,198.8,27.7Z" transform="translate(-11.83 -11.76)" fill="#fff" stroke="#fff" stroke-miterlimit="10" stroke-width="4"/><path d="M256,422.1A166.1,166.1,0,1,1,422.1,256,166.08,166.08,0,0,1,256,422.1Zm0-318.3A152.2,152.2,0,1,0,408.2,256,152.15,152.15,0,0,0,256,103.8Z" transform="translate(-11.83 -11.76)" fill="#fff" stroke="#fff" stroke-miterlimit="10" stroke-width="4"/><path d="M189.1,333.1a6.93,6.93,0,0,1-4.9-11.8L320.7,184.8a6.93,6.93,0,1,1,9.8,9.8L194,331A6.89,6.89,0,0,1,189.1,333.1Z" transform="translate(-11.83 -11.76)" fill="#fff" stroke="#fff" stroke-miterlimit="10" stroke-width="4"/><path d="M300.4,332.6a32.1,32.1,0,1,1,32.1-32.1h0A32.07,32.07,0,0,1,300.4,332.6Zm0-50.3a18.3,18.3,0,1,0,18.3,18.3h0a18.37,18.37,0,0,0-18.3-18.3Z" transform="translate(-11.83 -11.76)" fill="#fff" stroke="#fff" stroke-miterlimit="10" stroke-width="4"/><path d="M211.6,243.1A32.1,32.1,0,1,1,243.7,211h0A32.14,32.14,0,0,1,211.6,243.1Zm0-50.3a18.3,18.3,0,1,0,18.3,18.3h0a18.24,18.24,0,0,0-18.3-18.3Z" transform="translate(-11.83 -11.76)" fill="#fff" stroke="#fff" stroke-miterlimit="10" stroke-width="4"/></svg>