<svg xmlns="http://www.w3.org/2000/svg" viewBox="0 0 509.73 505.37"><path d="M490.5,384.5,377,270.8a10.22,10.22,0,0,0-14,0l-22.5,22.5L314,266.9l64-64.3c26.7-1.4,62.3-1.3,63.9-1.5,6.6-1,19.4-11.3,62.4-69.1a9.45,9.45,0,0,0,1.9-5.6V100.3a10,10,0,0,0-5-8.6,9.75,9.75,0,0,0-9.9,0l-45.5,27c-3.9,1.2-20.9,5.2-35.5-15.5-15.8-22.5-8.7-33.3,1.2-41.8A530.16,530.16,0,0,1,457.7,32a10.24,10.24,0,0,0,5-8.2,9.88,9.88,0,0,0-4.3-8.5c-1.4-1-35.7-23.9-94.5-1.1-45.5,17.6-51.8,40.7-52.4,43.3l-9.7,68.4-64.4,64.4L180,132.6a53.23,53.23,0,0,0-11.8-57.4,10.1,10.1,0,0,0-1.6-1.3L69.3,10.6A9.7,9.7,0,0,0,57,11.8L16.5,52.3a9.7,9.7,0,0,0-1.2,12.3l63.5,97.2a10.1,10.1,0,0,0,1.3,1.6,53.07,53.07,0,0,0,57.3,11.8l57.5,57.7-70.4,70.4L57,312.9h-.7c-2.6.6-25.7,6.9-43.3,52.4-22.5,58.9,0,93.1,1.1,94.5a9.71,9.71,0,0,0,16.5-.6A494.06,494.06,0,0,1,60,413c8.5-10,19.5-16.9,41.9-1.3,20.8,14.7,16.9,31.8,15.5,35.5l-27,45.5a9.76,9.76,0,0,0,3.3,13.4,10,10,0,0,0,5.1,1.4h26.1a8.93,8.93,0,0,0,5.6-2c59.1-43.7,68.5-56.3,69.3-62.6,0-1.4,0-37,1.4-63.6l70.3-69.9,26.8,26.4-22.5,22.5a10,10,0,0,0,0,14L389.5,485.9a68.14,68.14,0,0,0,96.2,0l5.1-5.1a67.9,67.9,0,0,0,.2-96l-.2-.2Zm-172.3-247a10,10,0,0,0,2.8-5.6l10-70c.6-1.6,7.2-16.3,40.2-29a105.45,105.45,0,0,1,59.2-7.4,298.57,298.57,0,0,0-31.6,21c-27.1,23.2-17.4,49.8-4.6,68.1,20.1,28.5,47.8,27.1,59.5,22.5.5,0,32.8-19.3,32.8-19.3v5.6c-18.5,24.8-40.7,52.3-48.2,58.3-12.9-.7-48.9,1.1-65.1,2a9.73,9.73,0,0,0-6.5,2.9l-66.6,66.3L283.2,236l64.3-64.5a9.87,9.87,0,1,0-12.7-15.1,13.58,13.58,0,0,0-1.2,1.2L269.2,222l-17.7-17.7ZM117.5,159.3a33.21,33.21,0,0,1-23-9.1L36.1,60.5,65.2,31.4,154.8,90a33.7,33.7,0,0,1-.7,46.8l-12.9,12.9a33.45,33.45,0,0,1-23.7,9.8Zm67.2,208.9a9.75,9.75,0,0,0-2.9,6.4c-.9,16.2-2.6,52.2-1.9,65.1-6.1,7.5-33.8,29.8-58.4,48.3h-5.6s19.1-32.2,19.5-32.8c4.8-11.8,6.2-39.4-22.5-59.5-18.3-12.8-45-22.5-68.1,4.6a320.7,320.7,0,0,0-21,31.6,104.52,104.52,0,0,1,7.5-59.2c12.8-33.3,27.6-39.4,29-40.2l70.3-10a9.4,9.4,0,0,0,5.6-2.8l72.7-72.8,17.7,17.7-71.1,71.1a9.78,9.78,0,0,0-.1,13.8l.1.1a9.78,9.78,0,0,0,13.8.1l.1-.1,71.1-71.1,16.9,16.9ZM154.2,164.3l1-.9L168,150.6l.9-1L326.4,307.1l-14.7,14.7ZM476.6,467l-5.1,5.2a48.53,48.53,0,0,1-68.4,0L296.4,365.3l22.5-22.5,28.7-28.6,22.5-22.5L477,398.5a48.31,48.31,0,0,1-.2,68.3c-.1.1-.2.1-.2.2Z" transform="translate(-2.04 -3.13)" fill="#fff" stroke="#fff" stroke-miterlimit="10" stroke-width="2"/><path d="M363.9,345.3a9.78,9.78,0,0,0-13.8-.1l-.1.1a9.9,9.9,0,0,0,0,13.9l84.4,84.4a9.9,9.9,0,0,0,14-14h0Z" transform="translate(-2.04 -3.13)" fill="#fff" stroke="#fff" stroke-miterlimit="10" stroke-width="2"/></svg>