<svg xmlns="http://www.w3.org/2000/svg" viewBox="0 0 467.01 499"><path d="M24,432a8,8,0,0,1-8-8,72.08,72.08,0,0,1,72-72,8,8,0,0,1,0,16,56,56,0,0,0-56,56A8,8,0,0,1,24,432Z" transform="translate(-14.5 1.5)" fill="#fff" stroke="#fff" stroke-miterlimit="10" stroke-width="3"/><path d="M144,368H88a8,8,0,0,1,0-16h56a8,8,0,0,1,0,16Z" transform="translate(-14.5 1.5)" fill="#fff" stroke="#fff" stroke-miterlimit="10" stroke-width="3"/><path d="M288,368H256a8,8,0,0,1,0-16h32a8,8,0,0,1,0,16Z" transform="translate(-14.5 1.5)" fill="#fff" stroke="#fff" stroke-miterlimit="10" stroke-width="3"/><path d="M24,488a8,8,0,0,1-8-8V424a8,8,0,0,1,16,0v56A8,8,0,0,1,24,488Z" transform="translate(-14.5 1.5)" fill="#fff" stroke="#fff" stroke-miterlimit="10" stroke-width="3"/><path d="M32,496a16,16,0,0,1-16-16,8,8,0,0,1,16,0h0a8,8,0,0,1,0,16Z" transform="translate(-14.5 1.5)" fill="#fff" stroke="#fff" stroke-miterlimit="10" stroke-width="3"/><path d="M344,496H32a8,8,0,0,1,0-16H344a8,8,0,0,1,0,16Z" transform="translate(-14.5 1.5)" fill="#fff" stroke="#fff" stroke-miterlimit="10" stroke-width="3"/><path d="M144,368a8,8,0,0,1-8-8V314.2a8,8,0,0,1,16,0V360A8,8,0,0,1,144,368Z" transform="translate(-14.5 1.5)" fill="#fff" stroke="#fff" stroke-miterlimit="10" stroke-width="3"/><path d="M256,368a8,8,0,0,1-8-8V314.2a8,8,0,0,1,16,0V360A8,8,0,0,1,256,368Z" transform="translate(-14.5 1.5)" fill="#fff" stroke="#fff" stroke-miterlimit="10" stroke-width="3"/><path d="M200,336A128.12,128.12,0,0,1,72,208a8,8,0,0,1,16,0,112,112,0,0,0,224,0,8,8,0,0,1,16,0A128.12,128.12,0,0,1,200,336Z" transform="translate(-14.5 1.5)" fill="#fff" stroke="#fff" stroke-miterlimit="10" stroke-width="3"/><path d="M320,144a8,8,0,0,1-8-8,112,112,0,0,0-224,0,8,8,0,0,1-16,0,128,128,0,0,1,256,0A8,8,0,0,1,320,144Z" transform="translate(-14.5 1.5)" fill="#fff" stroke="#fff" stroke-miterlimit="10" stroke-width="3"/><path d="M80,216a8,8,0,0,1-8-8V168a8,8,0,0,1,16,0v40A8,8,0,0,1,80,216Z" transform="translate(-14.5 1.5)" fill="#fff" stroke="#fff" stroke-miterlimit="10" stroke-width="3"/><path d="M320,216a8,8,0,0,1-8-8V168a8,8,0,0,1,16,0v40A8,8,0,0,1,320,216Z" transform="translate(-14.5 1.5)" fill="#fff" stroke="#fff" stroke-miterlimit="10" stroke-width="3"/><path d="M336,176H64a8,8,0,0,1,0-16H336a8,8,0,0,1,0,16Z" transform="translate(-14.5 1.5)" fill="#fff" stroke="#fff" stroke-miterlimit="10" stroke-width="3"/><path d="M336,176a7.88,7.88,0,0,1-5.9-2.6c-.2-.2-29.2-29.4-130.1-29.4S70.1,173.2,69.9,173.5a8.13,8.13,0,0,1-11.3.4,7.91,7.91,0,0,1-.5-11.2C59.4,161.2,90.7,128,200,128s140.6,33.2,141.9,34.6a8,8,0,0,1-.6,11.3A7.75,7.75,0,0,1,336,176Z" transform="translate(-14.5 1.5)" fill="#fff" stroke="#fff" stroke-miterlimit="10" stroke-width="3"/><path d="M320,165.3a8,8,0,0,1-8-8V136a8,8,0,0,1,16,0v21.3A8,8,0,0,1,320,165.3Z" transform="translate(-14.5 1.5)" fill="#fff" stroke="#fff" stroke-miterlimit="10" stroke-width="3"/><path d="M80,165.3a8,8,0,0,1-8-8V136a8,8,0,0,1,16,0v21.3A8,8,0,0,1,80,165.3Z" transform="translate(-14.5 1.5)" fill="#fff" stroke="#fff" stroke-miterlimit="10" stroke-width="3"/><path d="M200,112a32,32,0,1,1,32-32A32.09,32.09,0,0,1,200,112Zm0-48a16,16,0,1,0,16,16A16,16,0,0,0,200,64Z" transform="translate(-14.5 1.5)" fill="#fff" stroke="#fff" stroke-miterlimit="10" stroke-width="3"/><path d="M200,24a8,8,0,0,1-8-8V8a8,8,0,0,1,16,0v8A8,8,0,0,1,200,24Z" transform="translate(-14.5 1.5)" fill="#fff" stroke="#fff" stroke-miterlimit="10" stroke-width="3"/><path d="M176,384a9.37,9.37,0,0,1-3.6-.8l-32-16a7.93,7.93,0,0,1-3.6-10.7,8,8,0,0,1,10.7-3.6l32,16a7.93,7.93,0,0,1,3.6,10.7A7.82,7.82,0,0,1,176,384Z" transform="translate(-14.5 1.5)" fill="#fff" stroke="#fff" stroke-miterlimit="10" stroke-width="3"/><path d="M176,384a8,8,0,0,1-2.5-15.6l24-8a8,8,0,0,1,5,15.2l-24,8A7.27,7.27,0,0,1,176,384Z" transform="translate(-14.5 1.5)" fill="#fff" stroke="#fff" stroke-miterlimit="10" stroke-width="3"/><path d="M224,384a8.08,8.08,0,0,1-7.2-4.4,7.9,7.9,0,0,1,3.6-10.7l32-16a8,8,0,0,1,7.1,14.3l-32,16A8.53,8.53,0,0,1,224,384Z" transform="translate(-14.5 1.5)" fill="#fff" stroke="#fff" stroke-miterlimit="10" stroke-width="3"/><path d="M224,384a7.27,7.27,0,0,1-2.5-.4l-24-8a8,8,0,0,1-5.1-10.1,8.07,8.07,0,0,1,10.1-5.1l24,8A8,8,0,0,1,224,384Z" transform="translate(-14.5 1.5)" fill="#fff" stroke="#fff" stroke-miterlimit="10" stroke-width="3"/><path d="M200.2,416a8,8,0,0,1,0-16h.1a8,8,0,0,1,8,8A8.11,8.11,0,0,1,200.2,416Z" transform="translate(-14.5 1.5)" fill="#fff" stroke="#fff" stroke-miterlimit="10" stroke-width="3"/><path d="M472,496H288a8,8,0,0,1-8-8V360a8,8,0,0,1,8-8H472a8,8,0,0,1,8,8V488A8,8,0,0,1,472,496ZM296,480H464V368H296Z" transform="translate(-14.5 1.5)" fill="#fff" stroke="#fff" stroke-miterlimit="10" stroke-width="3"/><path d="M288,366.7a8.09,8.09,0,0,1-4.9-1.7,8,8,0,0,1-1.4-11.2l24-30.7a8,8,0,0,1,12.6,9.8l-24,30.7A8.05,8.05,0,0,1,288,366.7Z" transform="translate(-14.5 1.5)" fill="#fff" stroke="#fff" stroke-miterlimit="10" stroke-width="3"/><path d="M472,368a8,8,0,0,1-6.4-3.2l-24-32a8,8,0,0,1,12.8-9.6l24,32a8,8,0,0,1-1.6,11.2A7.71,7.71,0,0,1,472,368Z" transform="translate(-14.5 1.5)" fill="#fff" stroke="#fff" stroke-miterlimit="10" stroke-width="3"/><path d="M448,336H312a8,8,0,0,1,0-16H448a8,8,0,0,1,0,16Z" transform="translate(-14.5 1.5)" fill="#fff" stroke="#fff" stroke-miterlimit="10" stroke-width="3"/><path d="M360,367.5a13.55,13.55,0,0,1-2-.2,8,8,0,0,1-5.8-9.7l8-31.5a8,8,0,0,1,15.5,3.9l-8,31.5A7.9,7.9,0,0,1,360,367.5Z" transform="translate(-14.5 1.5)" fill="#fff" stroke="#fff" stroke-miterlimit="10" stroke-width="3"/><path d="M400,368a8.08,8.08,0,0,1-7.8-6.1l-8-32a8,8,0,1,1,15.5-3.9l8,32a8,8,0,0,1-5.8,9.7A6.28,6.28,0,0,1,400,368Z" transform="translate(-14.5 1.5)" fill="#fff" stroke="#fff" stroke-miterlimit="10" stroke-width="3"/><path d="M360,408a8,8,0,0,1-8-8V359.5a8,8,0,0,1,16,0V400A8,8,0,0,1,360,408Z" transform="translate(-14.5 1.5)" fill="#fff" stroke="#fff" stroke-miterlimit="10" stroke-width="3"/><path d="M400,408a8,8,0,0,1-8-8V360a8,8,0,0,1,16,0v40A8,8,0,0,1,400,408Z" transform="translate(-14.5 1.5)" fill="#fff" stroke="#fff" stroke-miterlimit="10" stroke-width="3"/><path d="M400,408H360a8,8,0,0,1,0-16h40a8,8,0,0,1,0,16Z" transform="translate(-14.5 1.5)" fill="#fff" stroke="#fff" stroke-miterlimit="10" stroke-width="3"/></svg>