<svg xmlns="http://www.w3.org/2000/svg" viewBox="0 0 384.01 464"><path d="M422.32,403.1l-48.68-62.59A70.45,70.45,0,0,0,412.15,312c11.47-19.82,6.28-44,1.27-67.36A183.67,183.67,0,0,1,408,208a184,184,0,0,1,5.42-36.67c5-23.38,10.2-47.55-1.27-67.33-11.87-20.51-35.77-28.1-58.89-35.43a171.14,171.14,0,0,1-33.26-13,162.71,162.71,0,0,1-26.65-21.6C276.2,18,256.75,0,232,0s-44.2,18-61.36,33.94A162.21,162.21,0,0,1,144,55.54a171,171,0,0,1-33.25,13c-23.12,7.32-47,14.92-58.89,35.43-11.47,19.81-6.28,44-1.27,67.36A183.23,183.23,0,0,1,56,208a183.86,183.86,0,0,1-5.42,36.67c-5,23.38-10.2,47.55,1.27,67.33A70.4,70.4,0,0,0,90.4,340.5L41.68,403.09A8,8,0,0,0,49,415.94l57.2-7.15,14.12,49.41a8,8,0,0,0,6.17,5.66A8.6,8.6,0,0,0,128,464a8,8,0,0,0,6.32-3.09l51.09-65.71A74,74,0,0,0,232,416a74,74,0,0,0,46.59-20.8l51.09,65.69A8,8,0,0,0,336,464a8.6,8.6,0,0,0,1.52-.14,8,8,0,0,0,6.17-5.66l14.12-49.4,57.2,7.14a8,8,0,0,0,7.31-12.84Zm-291,35.55L119.69,397.8a8,8,0,0,0-8.68-5.74l-44.8,5.6,40.15-51.61,4.42,1.41a171.32,171.32,0,0,1,33.22,13,162.71,162.71,0,0,1,26.65,21.6l2.75,2.54ZM232,400c-18.48,0-34-14.4-50.49-29.66A176.46,176.46,0,0,0,152,346.6a185.67,185.67,0,0,0-36.42-14.4c-21.15-6.71-41.12-13.05-49.89-28.2-8.37-14.47-4-34.64.53-56A195.75,195.75,0,0,0,72,208a195.74,195.74,0,0,0-5.77-40c-4.58-21.35-8.9-41.52-.53-56,8.8-15.15,28.74-21.49,49.88-28.2A185.42,185.42,0,0,0,152,69.4a176,176,0,0,0,29.5-23.74C198,30.4,213.52,16,232,16s34,14.4,50.49,29.66A176.46,176.46,0,0,0,312,69.4a185.67,185.67,0,0,0,36.42,14.4c21.15,6.71,41.12,13,49.89,28.2,8.37,14.47,4.05,34.64-.53,56A195.75,195.75,0,0,0,392,208a195.74,195.74,0,0,0,5.77,40c4.58,21.35,8.9,41.52.53,56-8.8,15.15-28.74,21.49-49.88,28.2A185.42,185.42,0,0,0,312,346.6a176,176,0,0,0-29.5,23.74C266,385.6,250.48,400,232,400Zm121-7.94a8,8,0,0,0-8.68,5.74l-11.71,40.85-42-54,2.75-2.55A162.21,162.21,0,0,1,320,360.46a171,171,0,0,1,33.25-13l4.42-1.41,40.16,51.61Z" transform="translate(-40)" fill="#45d62d"/><path d="M232,64A144,144,0,1,0,376,208,144,144,0,0,0,232,64Zm0,272A128,128,0,1,1,360,208,128,128,0,0,1,232,336Z" transform="translate(-40)" fill="#45d62d"/><path d="M324.3,174.58A16,16,0,0,0,311.38,168h-49l-15.2-46.62a16,16,0,0,0-30.4,0L201.64,168h-49a16,16,0,0,0-9.42,28.94l39.65,28.8L167.7,272.35a16,16,0,0,0,24.63,17.89L232,261.45l39.66,28.8a16,16,0,0,0,24.62-17.89l-15.14-46.62,39.64-28.8A16,16,0,0,0,324.3,174.58ZM267,216.22a8,8,0,0,0-2.9,8.95l16.94,52.14L236.7,245.09a8,8,0,0,0-9.4,0l-44.36,32.22,16.94-52.14a8,8,0,0,0-2.9-8.95L152.62,184h54.83a8,8,0,0,0,7.61-5.53L232,126.33l16.94,52.13a8,8,0,0,0,7.61,5.53h54.83Z" transform="translate(-40)" fill="#45d62d"/></svg>