<svg xmlns="http://www.w3.org/2000/svg" viewBox="0 0 580.06 496.97"><path d="M55.34,249.77c1,0,2,0,2.93-.12a3.07,3.07,0,0,0,2.65-4c-.64-1.91-1.21-3.83-1.78-5.74a88.61,88.61,0,0,0-4.75-13.23,80.67,80.67,0,0,0-7.29-11.54c-1.11-1.55-2.21-3.1-3.26-4.67a2.91,2.91,0,0,0-.26-.33l-11-12.48-.19-.19c-7.87-7.46-17.25-9.9-28.92-11.27a2.17,2.17,0,0,0-.36,0A3.07,3.07,0,0,0,0,189.29C.73,219.25,28.66,249.77,55.34,249.77Z" transform="translate(0 -41.55)" fill="#45d62d"/><path d="M71.66,48.51l-.42,0a3,3,0,0,0-2,.73C57.34,59.34,49.43,76,48.1,93.73,47,108.9,50.89,122.86,58.9,132.05a3,3,0,0,0,2.3,1h0A3,3,0,0,0,63.54,132c24.27-28.68,27.72-56.33,10.23-82.19A3,3,0,0,0,71.66,48.51Z" transform="translate(0 -41.55)" fill="#45d62d"/><path d="M53.47,197.59a2.87,2.87,0,0,0,.87.13,3.06,3.06,0,0,0,2.95-2.26c9-33-4.6-65.75-31.67-76.27a3.08,3.08,0,0,0-1.11-.21,3.15,3.15,0,0,0-1.43.35,3.07,3.07,0,0,0-1.55,2C13.49,155.12,28.12,190.05,53.47,197.59Z" transform="translate(0 -41.55)" fill="#45d62d"/><path d="M56.57,308.4c1,0,2,0,3-.13a3.06,3.06,0,0,0,2.71-3.76c-3.12-13.06-6.39-24.7-14.75-34.47C36.74,251.2,18.22,246.78,5.22,245.1l-.4,0a3.08,3.08,0,0,0-3.06,3.13C2.45,278,30.11,308.4,56.57,308.4Z" transform="translate(0 -41.55)" fill="#45d62d"/><path d="M202.75,473.09a3.06,3.06,0,0,0-1.31-2.22A75.72,75.72,0,0,0,159,457.4c-17.18,0-32,6.46-40.65,17.71a3.06,3.06,0,0,0-.6,2.3,3,3,0,0,0,1.22,2,68.81,68.81,0,0,0,40.36,13c16.7,0,32.24-6.18,42.62-16.95A3,3,0,0,0,202.75,473.09Z" transform="translate(0 -41.55)" fill="#45d62d"/><path d="M154.48,441.2a3.06,3.06,0,0,0-1.13-2.39c-14-11.43-30.59-17.73-46.74-17.73-14.25,0-26.86,4.79-36.47,13.85a3.11,3.11,0,0,0-1,2.3,3.08,3.08,0,0,0,1.07,2.25,69.33,69.33,0,0,0,45.1,17.15,60.27,60.27,0,0,0,38-13.06A3,3,0,0,0,154.48,441.2Z" transform="translate(0 -41.55)" fill="#45d62d"/><path d="M87.06,365.47A3,3,0,0,0,89,363.91a3.09,3.09,0,0,0,.13-2.49C83.63,347.11,74.94,337,62.57,330.37l-.41-.28L56,326c-6.64-5-14.21-7.25-23.81-7.25A120.67,120.67,0,0,0,17,320a3.07,3.07,0,0,0-2.5,4c8.51,24.54,34.22,43,59.79,43A48.78,48.78,0,0,0,87.06,365.47Z" transform="translate(0 -41.55)" fill="#45d62d"/><path d="M77.91,134.8c-1.57,2.87-2,6.07-2.43,9.17-.19,1.31-.35,2.54-.6,3.71a3.05,3.05,0,0,0,2.41,3.64c1.24.24,2.53.61,3.9,1a29,29,0,0,0,7.94,1.49,13,13,0,0,0,2.27-.19c18.23-3.27,33.34-12.9,44.92-28.65a30.39,30.39,0,0,0,3.6-7.38c.44-1.14.89-2.33,1.4-3.48a3.08,3.08,0,0,0-1.76-4.12,42.84,42.84,0,0,0-14.45-2.42C106.07,107.56,86.65,118.76,77.91,134.8Z" transform="translate(0 -41.55)" fill="#45d62d"/><path d="M105.87,372.51a3.07,3.07,0,0,0,1.22-.26c16.4-7.13,21.07-21.79,23.15-32.19,2.24-11.16,1.83-22.76,1.13-32.64-.39-5.57-3.55-9.31-7.86-9.31-1.91,0-4.84.78-8,4.47l-2.57,3c-5,5.83-10.18,11.86-12.92,19-4.95,12.84-9,29.75,3.33,46.66A3.07,3.07,0,0,0,105.87,372.51Z" transform="translate(0 -41.55)" fill="#45d62d"/><path d="M73.27,314.85a3.06,3.06,0,0,0,3,2.49,3,3,0,0,0,.59-.06c1.16-.23,2.41-.37,3.73-.52,3.2-.36,6.51-.73,9.36-2.46,17.12-10.38,27.84-26.07,31.87-46.64.45-2.26.12-4.5-.28-7.33-.22-1.52-.47-3.24-.67-5.34a3,3,0,0,0-3-2.77,3,3,0,0,0-1.52.4l-12.21,7-8.6,4.93a3.17,3.17,0,0,0-.81.34c-12.58,7.37-20.31,19.14-23.64,36-.68,3.45.29,6.85,1.23,10.15C72.67,312.36,73,313.64,73.27,314.85Z" transform="translate(0 -41.55)" fill="#45d62d"/><path d="M145.61,415.28c4.25,0,7.15-3.78,9.21-7.08,7.88-12.64,10.08-27.29,6.89-46.09-.86-5-2.83-9.74-4.92-14.71-.95-2.26-1.94-4.6-2.83-7a3,3,0,0,0-2-1.86,2.88,2.88,0,0,0-.91-.14,3,3,0,0,0-1.77.56c-10.34,7.29-17.79,20.64-19.93,35.72-1.94,13.65.84,26.72,7.43,35C138.94,412.25,141.84,415.28,145.61,415.28Z" transform="translate(0 -41.55)" fill="#45d62d"/><path d="M182.16,373.48a3,3,0,0,0-2-.72,3.08,3.08,0,0,0-1.72.53C170,379.05,165,390,164.24,404.07c-.88,16.65,4.67,33.51,13.48,41,2.61,2.21,4.87,3.24,7.12,3.24,4.4,0,6.91-4,7.74-5.35,7.13-11.43,6.6-24.07,5.58-32.59C196.65,397.72,194.05,383.41,182.16,373.48Z" transform="translate(0 -41.55)" fill="#45d62d"/><path d="M97.68,97.29a39.05,39.05,0,0,0,6.95.62c28,0,55.28-29.52,57.12-52.8A3.06,3.06,0,0,0,159,41.83a49.71,49.71,0,0,0-5.31-.28c-27,0-51.54,21.88-58.47,52A3.06,3.06,0,0,0,95.67,96,3.11,3.11,0,0,0,97.68,97.29Z" transform="translate(0 -41.55)" fill="#45d62d"/><path d="M74.46,260.09c.5,0,1,0,1.5,0,14.4,0,30-11.87,39-23.65,8.51-11.06,12.05-22.43,9.72-31.2A3.07,3.07,0,0,0,122,203c-1.1-.08-2.2-.12-3.26-.12a35.46,35.46,0,0,0-26,10.61c-16.4,9.53-26.15,30.26-20.89,44.58A3.07,3.07,0,0,0,74.46,260.09Z" transform="translate(0 -41.55)" fill="#45d62d"/><path d="M76.37,206.7h.18c21.12,0,48.66-23.46,52.62-44.81a3.07,3.07,0,0,0-1.56-3.26A23.69,23.69,0,0,0,116.28,156c-19.4,0-47.37,19.39-50.49,40-.51,3.34,0,5.87,1.62,7.74C69.61,206.31,73.18,206.68,76.37,206.7Z" transform="translate(0 -41.55)" fill="#45d62d"/><path d="M122.55,405.83a3.06,3.06,0,0,0,.59-4.7c-14.73-15.47-33.67-24.33-52-24.33a49.51,49.51,0,0,0-30,9.69A3.11,3.11,0,0,0,40,388.63,3,3,0,0,0,40.7,391c12.88,14.69,32,23.46,51.06,23.46A58,58,0,0,0,122.55,405.83Z" transform="translate(0 -41.55)" fill="#45d62d"/><path d="M577,186.16a2,2,0,0,0-.35,0c-11.68,1.37-21.06,3.81-28.93,11.27a1.7,1.7,0,0,0-.19.19l-.43.48-10.62,12a2,2,0,0,0-.25.33c-1.05,1.58-2.16,3.12-3.27,4.67a81.56,81.56,0,0,0-7.29,11.54,90.15,90.15,0,0,0-4.75,13.23c-.57,1.91-1.14,3.83-1.78,5.74a3.07,3.07,0,0,0,2.65,4c1,.08,2,.12,2.93.12,26.68,0,54.61-30.52,55.34-60.48a3.07,3.07,0,0,0-3.06-3.13Z" transform="translate(0 -41.55)" fill="#45d62d"/><path d="M518.83,133.1h0a3,3,0,0,0,2.31-1c8-9.19,11.94-23.15,10.8-38.32C530.62,76,522.71,59.35,510.8,49.22a3,3,0,0,0-2-.73l-.41,0a3,3,0,0,0-2.12,1.31c-17.48,25.86-14,53.51,10.24,82.19A3,3,0,0,0,518.83,133.1Z" transform="translate(0 -41.55)" fill="#45d62d"/><path d="M522.77,195.46a3.05,3.05,0,0,0,1.46,1.87,3,3,0,0,0,1.49.39,2.82,2.82,0,0,0,.87-.13c25.36-7.54,40-42.47,31.94-76.26a3,3,0,0,0-1.55-2,3.11,3.11,0,0,0-1.43-.35,3,3,0,0,0-1.1.21C527.37,129.71,513.75,162.5,522.77,195.46Z" transform="translate(0 -41.55)" fill="#45d62d"/><path d="M575.24,245.07l-.39,0c-27.1,3.51-37.11,15.89-42.27,24.94-8.35,9.77-11.63,21.41-14.75,34.47a3.06,3.06,0,0,0,2.72,3.76c1,.09,2,.13,2.94.13,26.46,0,54.12-30.38,54.81-60.19a3.06,3.06,0,0,0-3.06-3.14Z" transform="translate(0 -41.55)" fill="#45d62d"/><path d="M421.11,457.4a75.76,75.76,0,0,0-42.49,13.47,3.07,3.07,0,0,0-.47,4.65c10.39,10.77,25.92,16.94,42.63,16.94a68.81,68.81,0,0,0,40.35-13,3,3,0,0,0,1.22-2,3,3,0,0,0-.6-2.29C453.1,463.86,438.28,457.4,421.11,457.4Z" transform="translate(0 -41.55)" fill="#45d62d"/><path d="M473.45,421.09c-16.15,0-32.75,6.29-46.74,17.72a3.07,3.07,0,0,0,0,4.77,60.35,60.35,0,0,0,38,13.06,69.31,69.31,0,0,0,45.11-17.16,3.06,3.06,0,0,0,.1-4.54C500.45,426,487.5,421.09,473.45,421.09Z" transform="translate(0 -41.55)" fill="#45d62d"/><path d="M563,320a120.72,120.72,0,0,0-15.15-1.26c-9.6,0-17.17,2.31-23.81,7.26l-6.16,4-.41.27c-12.37,6.58-21.05,16.74-26.55,31.06a3.08,3.08,0,0,0,2.07,4.05,49.08,49.08,0,0,0,12.72,1.65c25.57,0,51.28-18.51,59.79-43.05a3,3,0,0,0-.29-2.61A3.09,3.09,0,0,0,563,320Z" transform="translate(0 -41.55)" fill="#45d62d"/><path d="M440.14,117.58a30.21,30.21,0,0,0,3.6,7.38c11.58,15.75,26.7,25.39,44.93,28.65a12.8,12.8,0,0,0,2.27.19,29.39,29.39,0,0,0,7.94-1.48c1.36-.39,2.65-.76,3.89-1a3,3,0,0,0,2-1.31,3.09,3.09,0,0,0,.45-2.33c-.25-1.17-.42-2.4-.6-3.71-.43-3.09-.87-6.3-2.44-9.17-8.74-16-28.15-27.24-47.2-27.24A42.5,42.5,0,0,0,440.51,110a3,3,0,0,0-1.76,4.11C439.25,115.25,439.7,116.44,440.14,117.58Z" transform="translate(0 -41.55)" fill="#45d62d"/><path d="M473,372.25a3,3,0,0,0,3.69-1c12.37-16.91,8.28-33.82,3.34-46.66-2.74-7.12-7.92-13.15-12.92-19-.87-1-1.73-2-2.58-3-3.1-3.69-6-4.47-7.95-4.47-4.31,0-7.47,3.74-7.86,9.31-.69,9.88-1.1,21.48,1.13,32.64C451.9,350.47,456.57,365.13,473,372.25Z" transform="translate(0 -41.55)" fill="#45d62d"/><path d="M499.47,316.76c1.32.15,2.56.29,3.72.52a3.05,3.05,0,0,0,.6.06,3.1,3.1,0,0,0,1.71-.52,3.14,3.14,0,0,0,1.3-2c.23-1.21.59-2.48,1-3.83.94-3.3,1.91-6.71,1.23-10.16-3.33-16.84-11.06-28.61-23.63-36a3.35,3.35,0,0,0-.82-.33l-8.6-4.93-12.2-7a3.06,3.06,0,0,0-1.52-.4,3,3,0,0,0-1.41.34,3.06,3.06,0,0,0-1.64,2.43c-.2,2.1-.45,3.82-.66,5.34-.41,2.84-.73,5.07-.29,7.34,4,20.57,14.75,36.26,31.87,46.63C493,316,496.27,316.4,499.47,316.76Z" transform="translate(0 -41.55)" fill="#45d62d"/><path d="M434.45,415.28c3.77,0,6.67-3,8.78-5.66,6.59-8.24,9.37-21.3,7.44-35-2.14-15.08-9.59-28.43-19.94-35.72a3,3,0,0,0-1.76-.56,3.18,3.18,0,0,0-.91.13,3.07,3.07,0,0,0-2,1.86c-.9,2.43-1.88,4.77-2.83,7-2.09,5-4.07,9.66-4.92,14.71-3.19,18.8-1,33.44,6.89,46.09C427.3,411.5,430.2,415.28,434.45,415.28Z" transform="translate(0 -41.55)" fill="#45d62d"/><path d="M401.59,373.29a3.14,3.14,0,0,0-1.73-.53,3,3,0,0,0-2,.72c-11.89,9.93-14.49,24.24-16,36.88-1,8.52-1.54,21.16,5.59,32.59.83,1.33,3.34,5.36,7.73,5.36,2.26,0,4.52-1,7.13-3.25,8.81-7.48,14.35-24.33,13.48-41C415.08,390,410,379.05,401.59,373.29Z" transform="translate(0 -41.55)" fill="#45d62d"/><path d="M482.38,97.29a3.07,3.07,0,0,0,2-1.33,3.1,3.1,0,0,0,.43-2.37c-6.93-30.16-31.52-52-58.47-52a52.16,52.16,0,0,0-5.31.27,3.07,3.07,0,0,0-2.73,3.29c1.84,23.27,29.11,52.8,57.12,52.8A39.22,39.22,0,0,0,482.38,97.29Z" transform="translate(0 -41.55)" fill="#45d62d"/><path d="M487.39,213.51a35.45,35.45,0,0,0-26-10.61c-1.06,0-2.16,0-3.26.12a3.06,3.06,0,0,0-2.75,2.27c-2.33,8.76,1.21,20.13,9.72,31.2,9.05,11.77,24.62,23.64,39,23.64.5,0,1,0,1.49,0a3.05,3.05,0,0,0,2.69-2C513.55,243.77,503.8,223,487.39,213.51Z" transform="translate(0 -41.55)" fill="#45d62d"/><path d="M514.27,196c-3.12-20.6-31.08-40-50.48-40h0a23.66,23.66,0,0,0-11.33,2.62,3.06,3.06,0,0,0-1.56,3.25c4,21.36,31.49,44.82,52.62,44.82h.17c3.2,0,6.76-.39,9-3C514.25,201.86,514.78,199.33,514.27,196Z" transform="translate(0 -41.55)" fill="#45d62d"/><path d="M508.9,376.79c-18.3,0-37.25,8.87-52,24.33a3.07,3.07,0,0,0,.59,4.71,58.05,58.05,0,0,0,30.8,8.59c19.08,0,38.17-8.77,51.06-23.46a3.07,3.07,0,0,0-.47-4.47A49.49,49.49,0,0,0,508.9,376.79Z" transform="translate(0 -41.55)" fill="#45d62d"/><path d="M391.29,514.1q-41.09-12.21-82.13-24.53c-1.62-.49-3-1.49-3-2.23s1.2-1.92,2.74-2.63c2.65-1.21,5.3-2.44,8-3.57,10.86-4.62,21.54-9.81,32.7-13.57,7.75-2.61,11.78-6.39,10.4-14.33a2.39,2.39,0,0,0-3.5-1.71c-12.95,5.88-25.84,11.89-38.91,17.48-8,3.43-15.88,9.41-25.44,3.57a6.1,6.1,0,0,0-4.24,0c-9.56,5.84-17.41-.14-25.44-3.57-13.07-5.59-26-11.61-38.91-17.48a2.39,2.39,0,0,0-3.5,1.71c-1.38,7.94,2.65,11.73,10.4,14.33,11.16,3.76,21.84,8.95,32.7,13.57,2.68,1.14,5.33,2.36,8,3.57,1.54.71,2.77,1.88,2.74,2.63s-1.36,1.74-3,2.23q-41.05,12.27-82.13,24.53c-9.51,2.83-17.39,11.66-19.67,22.15-.35,1.65.67,2.63,2.09,2.14.89-.31,1.74-.61,2.57-.93q46.56-18.19,93.07-36.44c6.47-2.55,12.47-5.89,19.61-1.15a3.3,3.3,0,0,0,1.76.48c1,0,2.65,0,3.66,0a3.3,3.3,0,0,0,1.76-.48c7.14-4.74,13.14-1.4,19.61,1.15q46.47,18.35,93.07,36.44c.83.32,1.68.62,2.57.93,1.42.49,2.44-.49,2.09-2.14C408.68,525.76,400.8,516.93,391.29,514.1Z" transform="translate(0 -41.55)" fill="#45d62d"/></svg>