<svg xmlns="http://www.w3.org/2000/svg" viewBox="0 0 347.4 514"><path d="M428.8,453.1v50.4a8.5,8.5,0,0,1-17,0V453.1a71,71,0,0,0-71-71,52.55,52.55,0,0,1-45.1-25.3,8.51,8.51,0,1,1,14.5-8.9A35.4,35.4,0,0,0,340.7,365a88,88,0,0,1,88.1,88.1ZM309.7,390.9a8.54,8.54,0,0,1-1,12,81.91,81.91,0,0,1-44.2,18.8v39.1a8.5,8.5,0,0,1-17,0v-39a81.68,81.68,0,0,1-62.8-41.4,53.88,53.88,0,0,1-13.3,1.7,71,71,0,0,0-71,71v50.4a8.5,8.5,0,0,1-17,0V453.1A88,88,0,0,1,171.5,365a35.64,35.64,0,0,0,35.7-35.6v-2.2a114.37,114.37,0,0,1-65-98.8,34.81,34.81,0,0,1-26.7-33.7V90.7A37.43,37.43,0,0,1,147,53.8,92.19,92.19,0,0,1,231.3,0h73.2a93.51,93.51,0,0,1,93.4,93.4V194.6a8.5,8.5,0,1,1-17,0V93.4a76.35,76.35,0,0,0-76.3-76.3H231.4a76,76,0,0,0-70.9,48,8.59,8.59,0,0,1-7.9,5.4,20.31,20.31,0,0,0-20.3,20.3v104a17.5,17.5,0,0,0,9.6,15.6V155.1a59.79,59.79,0,0,1,59.7-59.7H310.4a59.79,59.79,0,0,1,59.7,59.7V225c0,74.2-72.5,130.6-146.3,108.9a52.18,52.18,0,0,1-23.5,39.7,64.7,64.7,0,0,0,97.4,16.5,8.26,8.26,0,0,1,12,.8ZM256,321.2a97.2,97.2,0,0,0,97.1-97.1V154.9a42.74,42.74,0,0,0-42.7-42.7H201.6a42.74,42.74,0,0,0-42.7,42.7v69.2A97.2,97.2,0,0,0,256,321.2Z" transform="translate(-82.4 1)" fill="#212121" stroke="#fff" stroke-miterlimit="10" stroke-width="2"/></svg>