<svg xmlns="http://www.w3.org/2000/svg" viewBox="0 0 512 512.11"><path d="M475.21,366.52,344.71,412.3a17.68,17.68,0,0,1-5.94,1h-2a36.26,36.26,0,0,0-3.33-27.63l-.66-1.21a43.7,43.7,0,0,0-37.67-22.12H258.21a54.31,54.31,0,0,1-34.69-12.84,71.4,71.4,0,0,0-45.63-16.69h-4.33c-2.14,0-45.89.4-74.13,24.47a17.06,17.06,0,0,0-14-7.41H17.12A17.11,17.11,0,0,0,.05,366.93V486.4a17.1,17.1,0,0,0,17.07,17.07H85.39a17,17,0,0,0,13.11-6.29A85.59,85.59,0,0,0,151.15,512H336.5a57,57,0,0,0,30.32-8.88l132.12-84.67a29,29,0,0,0,12.56-18.89,30,30,0,0,0-4.92-22.91A27.63,27.63,0,0,0,475.21,366.52ZM85.39,486.4H17.12V366.93H85.39V486.4Zm409.36-90.06a11.75,11.75,0,0,1-5.05,7.76l-132,84.61a39.72,39.72,0,0,1-21.17,6.22H151.15c-32.62,0-45.32-12.83-48.7-17.18v-99c20.85-28.42,70.61-28.87,71.11-28.87h4.33a54.31,54.31,0,0,1,34.69,12.72,71.38,71.38,0,0,0,45.63,16.81h36.87a26.15,26.15,0,0,1,22.77,13.38l.66,1.21a19,19,0,0,1-.43,19.3h-42A69.76,69.76,0,0,0,236,426.07l-5.11,3.59a8.53,8.53,0,0,0,9.8,14l5.1-3.58a52.77,52.77,0,0,1,30.27-9.7h62.69a34.49,34.49,0,0,0,11.7-2l130.31-45.72a10.44,10.44,0,0,1,11.92,3.92A12.78,12.78,0,0,1,494.75,396.34Z" transform="translate(-0.05 0)" fill="#212121"/><path d="M42.72,460.8a9,9,0,0,0,6.06-2.48,9.88,9.88,0,0,0,1.79-2.81,8.44,8.44,0,0,0,.68-3.24,8.53,8.53,0,0,0-14.59-6.06,8.53,8.53,0,0,0,6.06,14.59Z" transform="translate(-0.05 0)" fill="#212121"/><path d="M358.45,102.4a25.6,25.6,0,1,0-25.6-25.6A25.6,25.6,0,0,0,358.45,102.4Zm0-34.13a8.53,8.53,0,1,1-8.53,8.53A8.53,8.53,0,0,1,358.45,68.27Z" transform="translate(-0.05 0)" fill="#212121"/><path d="M324.32,256h68.27a8.54,8.54,0,0,0,8.53-8.53V213.33a8.54,8.54,0,0,0-8.53-8.53h-8.53V128a8.52,8.52,0,0,0-8.54-8.53h-51.2a8.52,8.52,0,0,0-8.53,8.53v34.13a8.54,8.54,0,0,0,8.53,8.54h8.53V204.8h-8.53a8.54,8.54,0,0,0-8.53,8.53v34.14a8.54,8.54,0,0,0,8.53,8.53Zm8.53-34.13h8.54a8.54,8.54,0,0,0,8.53-8.54v-51.2a8.54,8.54,0,0,0-8.53-8.53h-8.54V136.53H367v76.8a8.54,8.54,0,0,0,8.53,8.54h8.53v17.06h-51.2V221.87Z" transform="translate(-0.05 0)" fill="#212121"/><path d="M264.59,275.13v49.14A8.53,8.53,0,0,0,278.42,331L316,301.23a153.82,153.82,0,1,0-51.36-26.1ZM237,91.55a136.39,136.39,0,1,1,79.78,192.08,8.57,8.57,0,0,0-7.93,1.44l-27.21,21.55V270.85a8.56,8.56,0,0,0-3.52-6.91A136.46,136.46,0,0,1,237,91.55Z" transform="translate(-0.05 0)" fill="#212121"/></svg>