<svg xmlns="http://www.w3.org/2000/svg" viewBox="0 0 511.9 347.2"><path d="M350.3,313.6a7.6,7.6,0,0,0,0,15.2h61.2a12.61,12.61,0,0,0,12.6-12.6V144.8a12.61,12.61,0,0,0-12.6-12.6H101.2a12.61,12.61,0,0,0-12.6,12.6V316.1a12.61,12.61,0,0,0,12.6,12.6H364.1a7.6,7.6,0,0,0,0-15.2H103.7V147.4H409V313.7Z" transform="translate(0 -82.4)" fill="#212121"/><path d="M480.7,378.7h-7.9V105.1a22.75,22.75,0,0,0-22.7-22.7H61.9a22.75,22.75,0,0,0-22.7,22.7v91.8a7.6,7.6,0,0,0,15.2,0V105.1A7.6,7.6,0,0,1,62,97.5H450.2a7.6,7.6,0,0,1,7.6,7.6V378.8H54.3V182.3a7.6,7.6,0,1,0-15.2,0V378.8H31.2A31.26,31.26,0,0,0,0,410.1v7.2a12.29,12.29,0,0,0,12.3,12.3H161.2a7.6,7.6,0,1,0,0-15.2H15.1V410a16.26,16.26,0,0,1,16.2-16.2H480.6A16.26,16.26,0,0,1,496.8,410v4.4h-349a7.6,7.6,0,1,0,0,15.2H499.6a12.29,12.29,0,0,0,12.3-12.3v-7.2a31.28,31.28,0,0,0-31.2-31.4Z" transform="translate(0 -82.4)" fill="#212121"/><path d="M300.1,219.3a11.37,11.37,0,0,0-7.2-8.4l-79.3-30.4a11.62,11.62,0,0,0-12.3,2.6,11.47,11.47,0,0,0-2.6,12.3l30.4,79.3a11.55,11.55,0,0,0,8.4,7.2,11.77,11.77,0,0,0,10.6-3.1l12.4-12.4,14.3,14.3a11.59,11.59,0,0,0,16.4,0l7.6-7.6a11.59,11.59,0,0,0,0-16.4l-14.3-14.3L296.9,230a11.91,11.91,0,0,0,3.2-10.7Zm-14.5,45.5-2.6,2.6-17.2-17.2a7.42,7.42,0,0,0-5.3-2.2,7.25,7.25,0,0,0-5.3,2.2l-13.9,13.9-25.7-66.8L282.4,223l-13.9,14a7.48,7.48,0,0,0,0,10.6Z" transform="translate(0 -82.4)" fill="#212121"/></svg>