<svg xmlns="http://www.w3.org/2000/svg" viewBox="0 0 494 446"><path d="M441.91,24H122.47C94.75,24,72.19,46.34,72.19,73.72L70.13,355H7.79C3.37,355,0,358.91,0,363.32V402c0,36.23,29,65.87,64,67.5V470H333v-.52c2,.08,3.21.52,4.59.52h.19A67.61,67.61,0,0,0,405,402V156h81.21c4.42,0,7.79-4,7.79-8.41v-71A52.47,52.47,0,0,0,441.91,24ZM67.5,454h0C39,454,16,430.48,16,402V371H270v30.89a67.71,67.71,0,0,0,19.77,48.05c1.35,1.36,2.76,2.06,4.21,4.06ZM389,402c0,28.46-22.77,52-51.23,52h-.17A52,52,0,0,1,286,401.9V363.32a8.29,8.29,0,0,0-8-8.32H86.13L88.19,73.77c0-18.6,15.38-33.77,34.28-33.77H404.14C395,50,389,62.65,389,76.77ZM478,76.7V140H405V76.76c0-20,16.66-36.76,36.67-36.76h.22A36.47,36.47,0,0,1,478,76.64Z" transform="translate(0 -24)" fill="#212121"/><path d="M187.86,220.91l41.24,28.2a7.86,7.86,0,0,0,8.94,0l41.12-28.19c14.29-9.74,24.84-30.12,24.84-47.4V116.47a7.8,7.8,0,0,0-4.27-7.18l-62.8-30.9a7.88,7.88,0,0,0-7,0L167.26,109.2a7.8,7.8,0,0,0-4.26,7.18v57.14C163,190.8,173.57,211.18,187.86,220.91ZM179,121.38l54.5-26.9,54.5,27v52.07c0,12-7.9,27.38-17.86,34.18l-36.73,25.12L196.82,207.7c-10-6.8-17.82-22.13-17.82-34.18Z" transform="translate(0 -24)" fill="#212121"/><path d="M220,185.6a8,8,0,0,0,5.66,2.4h0a8,8,0,0,0,5.66-2.37l31.82-31.83a8,8,0,0,0-11.31-11.33l-26.14,26.14-10.45-10.55a8,8,0,1,0-11.37,11.27Z" transform="translate(0 -24)" fill="#212121"/><path d="M333,272H141a8,8,0,0,0,0,16H333a8,8,0,0,0,0-16Z" transform="translate(0 -24)" fill="#212121"/><path d="M333,309H141a8,8,0,0,0,0,16H333a8,8,0,0,0,0-16Z" transform="translate(0 -24)" fill="#212121"/></svg>