<?xml version="1.0" encoding="utf-8"?><!DOCTYPE svg PUBLIC "-//W3C//DTD SVG 1.1//EN" "http://www.w3.org/Graphics/SVG/1.1/DTD/svg11.dtd"><svg viewBox="0 0 510.24 512" xmlns="http://www.w3.org/2000/svg" xmlns:xlink="http://www.w3.org/1999/xlink"><style>:root>svg{display:none}:root>svg:target{display:block}</style><svg viewBox="0 0 298.6 413.1" id="ic_location" xmlns="http://www.w3.org/2000/svg"><path d="M149.3 0A149.12 149.12 0 0 0 0 149.3c0 28.8 9.2 56.3 22 78.9l97.3 168.4c6.1 11 18.4 16.5 30 16.5a34.8 34.8 0 0 0 30-16.5l97.3-168.3c12.9-22.6 22-49.6 22-78.9A149.2 149.2 0 0 0 149.3 0zm0 193.4a54.5 54.5 0 1 1 54.5-54.5 54.63 54.63 0 0 1-54.5 54.5z"/></svg><svg viewBox="0 0 500 500" id="ic_phone" xmlns="http://www.w3.org/2000/svg"><path d="M366.667 300c-33.334 33.333-33.334 66.666-66.667 66.666S233.333 333.333 200 300c-33.333-33.334-66.667-66.667-66.667-100s33.333-33.333 66.667-66.667S133.333 0 100 0 0 100 0 100c0 66.667 68.49 201.823 133.333 266.667S333.333 500 400 500c0 0 100-66.667 100-100S400 266.667 366.667 300z"/></svg><svg viewBox="0 0 510.24 512" id="ic_site" xmlns="http://www.w3.org/2000/svg"><path d="M353.85 272H156.39a5 5 0 0 0-5 5.12c.6 23.14 2.17 45.25 4.55 66.16a5 5 0 0 0 6.18 4.29 379.55 379.55 0 0 1 186 0 5 5 0 0 0 6.18-4.29c2.38-20.91 3.95-43 4.55-66.16a5 5 0 0 0-5-5.12zM354.3 168.72a5 5 0 0 0-6.18-4.29 376 376 0 0 1-93 11.57 376 376 0 0 1-93-11.57 5 5 0 0 0-6.18 4.29c-2.38 20.91-3.95 43-4.55 66.16a5 5 0 0 0 5 5.12h197.46a5 5 0 0 0 5-5.12c-.6-23.14-2.17-45.25-4.55-66.16zM348.12 126.52c-9-49.58-22.7-90.23-38.55-119a5 5 0 0 0-3.37-2.48 259.35 259.35 0 0 0-102.16 0 5 5 0 0 0-3.38 2.48c-15.85 28.77-29.54 69.42-38.54 119a5 5 0 0 0 3.59 5.7A343.46 343.46 0 0 0 255.12 144a343 343 0 0 0 89.41-11.79 5 5 0 0 0 3.59-5.69zM361.53 23a5 5 0 0 0-6.71 6.39l.09.22c9.73 25.3 17.63 54 23.55 85.1a5 5 0 0 0 6.82 3.67 343.53 343.53 0 0 0 56.12-29.35 5 5 0 0 0 1-7.62q-3-3.27-6.22-6.46A256.13 256.13 0 0 0 361.53 23zM395.85 240h109.38a5 5 0 0 0 5-5.43 253.48 253.48 0 0 0-41.11-119.2 5 5 0 0 0-7-1.42 375.2 375.2 0 0 1-60.66 32.5q-6.56 2.76-13.18 5.28a5 5 0 0 0-3.16 5.27c3.15 25.1 5.1 51.28 5.76 78.08a5 5 0 0 0 5 4.89zM162.12 385.48c9 49.58 22.7 90.23 38.54 119a5 5 0 0 0 3.38 2.48 259.35 259.35 0 0 0 102.16 0 5 5 0 0 0 3.38-2.48c15.85-28.73 29.58-69.38 38.54-119a5 5 0 0 0-3.59-5.7 345.06 345.06 0 0 0-178.82 0 5 5 0 0 0-3.59 5.69zM108.76 365.55q6.56-2.76 13.18-5.28a5 5 0 0 0 3.18-5.27c-3.14-25.1-5.09-51.28-5.76-78.08a5 5 0 0 0-5-4.89H5.01a5 5 0 0 0-5 5.43 253.48 253.48 0 0 0 41.11 119.17 5 5 0 0 0 7 1.42 374.79 374.79 0 0 1 60.66-32.49zM441.4 423a343.58 343.58 0 0 0-56.12-29.36 5 5 0 0 0-6.82 3.67c-5.92 31.07-13.82 59.8-23.55 85.1l-.09.22a5 5 0 0 0 6.71 6.39A256 256 0 0 0 436.12 437q3.18-3.18 6.23-6.46a5 5 0 0 0-1-7.61zM390.86 276.89c-.66 26.8-2.62 53-5.76 78.08a5 5 0 0 0 3.2 5.3q6.63 2.52 13.18 5.28a375.62 375.62 0 0 1 60.64 32.5 5 5 0 0 0 7-1.42 253.48 253.48 0 0 0 41.11-119.2 5 5 0 0 0-5-5.43H395.85a5 5 0 0 0-5 4.89zM68.84 89.06a344.31 344.31 0 0 0 56.12 29.35 5 5 0 0 0 6.82-3.67c5.91-31.07 13.82-59.8 23.55-85.1l.09-.22a5 5 0 0 0-6.71-6.42 256.13 256.13 0 0 0-74.59 52q-3.18 3.18-6.23 6.46a5 5 0 0 0 .95 7.6zM119.27 240a788.42 788.42 0 0 1 5.85-83 5 5 0 0 0-3.2-5.3q-6.63-2.52-13.18-5.28A375.62 375.62 0 0 1 48.12 114a5 5 0 0 0-7 1.42A253.48 253.48 0 0 0 .02 234.57a5 5 0 0 0 5 5.43zM148.71 489a5 5 0 0 0 6.71-6.39l-.09-.22c-9.73-25.3-17.63-54-23.55-85.1a5 5 0 0 0-6.82-3.67 344.31 344.31 0 0 0-56.12 29.35 5 5 0 0 0-1 7.62q3 3.29 6.22 6.46A256.13 256.13 0 0 0 148.71 489z"/></svg></svg>